# xmcd CD database file
#
# Track frame offsets:
#	150
#	20652
#	42957
#	61595
#	82797
#	101600
#	122815
#	140600
#	161510
#	187682
#	210900
#	229385
#
# Disc length: 3292 seconds
#
# Revision: 2
# Processed by: cddbd v1.5.2PL0 Copyright (c) Steve Scherf et al.
# Submitted via: CDex 1.79
#
DISCID=910cda0c
DTITLE=ZZ Top - Antenna
DYEAR=1994
DGENRE=Blues Rock
TTITLE0=Pincushion
TTITLE1=Breakaway
TTITLE2=World of Swirl
TTITLE3=Fuzzbox Voodoo
TTITLE4=Girl in a T-Shirt
TTITLE5=Antenna Head
TTITLE6=PCH
TTITLE7=Cherry Red
TTITLE8=Cover Your Rig
TTITLE9=Lizard Life
TTITLE10=Deal Goin' Down
TTITLE11=Everything
EXTD=Location:  - UPC: 743211826020 - Catalogue number: 74321182602 - Label: RCA - ASIN: B000026L6U - Release Date: 1994 01 18 - Discogs: a113655,m91846,r537587 - MUSICBRAINZ_ALBUMID: 64dab70a-db3c-393e-ae35-e6f42d0e93c5 - AMG: mn0000690254,mw0000622336 - YEAR: 1
EXTD=994
EXTT0=
EXTT1=
EXTT2=
EXTT3=
EXTT4=
EXTT5=
EXTT6=
EXTT7=
EXTT8=
EXTT9=
EXTT10=
EXTT11=
PLAYORDER=
